<?xml version="1.0" encoding="UTF-8"?>
<!DOCTYPE svg PUBLIC "-//W3C//DTD SVG 1.1//EN" "http://www.w3.org/Graphics/SVG/1.1/DTD/svg11.dtd">
<svg xmlns="http://www.w3.org/2000/svg" version="1.1" width="500px" height="500px" style="shape-rendering:geometricPrecision; text-rendering:geometricPrecision; image-rendering:optimizeQuality; fill-rule:evenodd; clip-rule:evenodd" xmlns:xlink="http://www.w3.org/1999/xlink">
<g><path style="opacity:0.881" fill="#f7f7f7" d="M 202.5,29.5 C 210.174,29.3336 217.841,29.5003 225.5,30C 226.423,32.0408 226.756,34.2075 226.5,36.5C 240.5,36.5 254.5,36.5 268.5,36.5C 268.244,34.2075 268.577,32.0408 269.5,30C 342.341,30.1638 397.508,61.3304 435,123.5C 456.273,163.475 462.94,205.808 455,250.5C 439.486,320.017 398.319,367.184 331.5,392C 321.091,395.061 310.591,397.561 300,399.5C 298.888,401.39 298.054,403.39 297.5,405.5C 301.888,424.107 305.888,442.774 309.5,461.5C 309.902,466.069 307.902,467.569 303.5,466C 303,465.5 302.5,465 302,464.5C 296.333,449.5 290.667,434.5 285,419.5C 274.388,429.093 261.888,433.427 247.5,432.5C 233.668,433.389 221.501,429.389 211,420.5C 205.284,434.31 199.95,448.31 195,462.5C 193.392,466.354 190.726,467.354 187,465.5C 186.333,462.833 186.333,460.167 187,457.5C 190.513,440.436 194.346,423.436 198.5,406.5C 197.333,404.167 196.167,401.833 195,399.5C 126.962,386.794 78.962,348.794 51,285.5C 39.6247,255.832 35.6247,225.166 39,193.5C 47.2931,131.046 78.4598,83.879 132.5,52C 154.562,40.1591 177.895,32.6591 202.5,29.5 Z"/></g>
<g><path style="opacity:1" fill="#000000" d="M 207.5,32.5 C 212.833,32.5 218.167,32.5 223.5,32.5C 223.5,130.5 223.5,228.5 223.5,326.5C 206.289,333.897 195.789,346.897 192,365.5C 191.188,375.247 191.688,384.913 193.5,394.5C 129.044,382.21 83.2103,346.21 56,286.5C 31.0604,222.616 38.0604,162.616 77,106.5C 110.196,63.8147 153.696,39.148 207.5,32.5 Z"/></g>
<g><path style="opacity:1" fill="#000000" d="M 271.5,32.5 C 332.462,34.2304 381.628,58.8971 419,106.5C 457.94,162.616 464.94,222.616 440,286.5C 412.72,346.603 366.553,382.603 301.5,394.5C 308.556,365.801 299.889,343.301 275.5,327C 274.207,326.51 272.873,326.343 271.5,326.5C 271.5,228.5 271.5,130.5 271.5,32.5 Z"/></g>
<g><path style="opacity:1" fill="#020202" d="M 226.5,39.5 C 240.5,39.5 254.5,39.5 268.5,39.5C 268.5,154.5 268.5,269.5 268.5,384.5C 254.5,384.5 240.5,384.5 226.5,384.5C 226.5,269.5 226.5,154.5 226.5,39.5 Z"/></g>
<g><path style="opacity:1" fill="#fefffe" d="M 147.5,206.5 C 175.025,203.67 194.525,214.67 206,239.5C 212.94,263.262 207.107,283.095 188.5,299C 173.317,308.849 156.984,311.182 139.5,306C 111.391,292.273 101.225,270.106 109,239.5C 116.481,222.18 129.315,211.18 147.5,206.5 Z"/></g>
<g><path style="opacity:1" fill="#fdfdfd" d="M 328.5,206.5 C 359.696,204.662 379.53,218.662 388,248.5C 390.37,280.29 376.204,300.124 345.5,308C 316.808,309.956 297.641,297.456 288,270.5C 283.469,237.567 296.969,216.234 328.5,206.5 Z"/></g>
<g><path style="opacity:1" fill="#040404" d="M 222.5,329.5 C 224.173,348.38 225.173,367.547 225.5,387C 240.408,387.823 255.241,387.657 270,386.5C 270.167,367.491 270.667,348.491 271.5,329.5C 294.467,343.104 303.633,363.104 299,389.5C 289.14,418.347 268.973,431.514 238.5,429C 203.761,418.359 189.927,395.192 197,359.5C 202.137,346.538 210.637,336.538 222.5,329.5 Z"/></g>
<g><path style="opacity:1" fill="#1d1d1d" d="M 293.5,408.5 C 298.171,424.839 301.671,441.505 304,458.5C 298.916,444.25 294.083,429.917 289.5,415.5C 290.851,413.156 292.184,410.822 293.5,408.5 Z"/></g>
<g><path style="opacity:1" fill="#1d1d1d" d="M 201.5,410.5 C 203.683,411.85 205.35,413.684 206.5,416C 201.527,430.114 196.694,444.281 192,458.5C 194.409,442.384 197.576,426.384 201.5,410.5 Z"/></g>
</svg>
